<?xml version="1.0" encoding="UTF-8" standalone="no"?>
<!DOCTYPE svg PUBLIC "-//W3C//DTD SVG 1.1//EN" "http://www.w3.org/Graphics/SVG/1.1/DTD/svg11.dtd">
<svg width="100%" height="100%" viewBox="0 0 1080 1080" version="1.1" xmlns="http://www.w3.org/2000/svg" xmlns:xlink="http://www.w3.org/1999/xlink" xml:space="preserve" xmlns:serif="http://www.serif.com/" style="fill-rule:evenodd;clip-rule:evenodd;stroke-miterlimit:10;">
    <g id="Outline">
        <path d="M808.1,414.54C803.71,384.3 797.27,355.07 788.9,327.67C785.83,317.36 778.24,309.75 768.63,307.2C759.02,304.64 748.58,307.58 740.84,315.02C720.11,334.74 700.12,357.04 681.42,381.25C672.9,392.44 664.51,403.9 656.22,416.44C625,402.92 593.35,395.04 562.09,392.68C559.44,386.69 557.72,380.72 556.69,374.51C553.02,352.08 560.67,333.34 567.17,322.36C593.93,331.99 622.97,331.87 649.88,321.86C690.37,306.86 720.03,270.99 727.14,228.29C727.79,224.41 726.28,220.47 723.26,217.96C690.02,190.26 644.25,182.39 603.63,197.38C584.33,204.64 567.04,216.79 553.56,232.55C540.67,212.82 522.28,197.38 500.62,188.03C460.9,170.91 414.75,176.6 380.13,202.52C376.97,204.99 375.38,208.84 375.81,212.75C380.79,255.65 408.51,293.01 448.24,309.99C464.58,317.04 482.24,320.23 500.15,319.52C493.23,340.71 491.4,362.84 494.96,384.46C495.53,388.11 496.37,391.76 497.34,395.55C476.95,398.74 456.62,404.08 436.65,411.59C428.82,398.19 420.84,385.73 412.57,373.66C395.4,348.43 376.69,325.05 357.11,304.19C349.8,296.32 339.55,292.8 329.81,294.82C320.07,296.83 311.94,304 308.29,314.12C298.39,341 290.45,369.83 284.36,399.77C274.99,446.03 270.24,495.38 270.41,546.49C249.91,582.22 240.92,619.48 244.65,654.41C249.41,699.32 274.36,738.85 310.71,770.68C310.56,771.01 310.41,771.34 310.28,771.69L268.48,881.82C263.89,893.91 276.07,905.59 287.96,900.5L434.74,837.62C467.63,847.79 501.92,853.68 535.12,854.61C539.69,854.74 544.26,854.87 548.83,854.73C654.02,853.25 811.77,795.3 833.16,670.98C839.28,635.11 832.7,596.34 813.86,558.69C816.61,508.75 813.929,455.732 807.419,409.962L808.1,414.54Z" style="fill:none;fill-rule:nonzero;stroke:rgb(0,48,36);stroke-width:88px;"/>
        <path d="M936.6,715.27C919.51,703.22 899.68,694.9 879.25,691.2C868.28,689.41 857.8,696.51 855.81,707.45C853.83,718.41 861.12,728.9 872.06,730.89C882.32,732.74 897.8,737.25 913.38,748.23C928.83,759.12 938.24,772.03 943.4,780.95C947.04,787.22 953.55,790.8 960.29,790.99C963.91,791.09 967.6,790.22 970.96,788.28C980.59,782.69 983.87,770.35 978.29,760.71C967.97,742.93 953.56,727.21 936.6,715.27Z" style="fill:none;fill-rule:nonzero;stroke:rgb(0,48,36);stroke-width:88px;"/>
        <path d="M999.12,621.67C980.27,613.16 959.72,608.69 938.8,608.78C917.9,608.89 897.09,613.69 878.61,622.65C868.6,627.52 864.41,639.57 869.26,649.6C872.66,656.6 879.58,660.75 886.85,660.96C889.99,661.05 893.18,660.4 896.2,658.95C905.33,654.52 920.16,649.21 939.01,649.11C957.49,648.95 973,654.11 982.49,658.42C992.63,663 1004.6,658.5 1009.18,648.36C1013.77,638.21 1009.26,626.26 999.12,621.67Z" style="fill:none;fill-rule:nonzero;stroke:rgb(0,48,36);stroke-width:88px;"/>
        <path d="M197.69,672.01C177.08,674.56 156.8,681.74 139.06,692.81C121.46,703.78 106.19,718.66 94.88,735.83C88.76,745.14 91.35,757.65 100.65,763.77C103.9,765.9 107.53,766.97 111.15,767.07C117.89,767.26 124.59,764.06 128.58,758C134.23,749.39 144.35,737.03 160.39,727.03C176.56,716.94 192.28,713.31 202.62,712.04C213.66,710.67 221.52,700.61 220.17,689.55C218.8,678.51 208.89,670.82 197.68,672L197.69,672.01Z" style="fill:none;fill-rule:nonzero;stroke:rgb(0,48,36);stroke-width:88px;"/>
        <path d="M140.38,626.62C159.2,627.78 173.71,633.91 182.58,638.85C185.52,640.47 188.67,641.29 191.81,641.38C199.08,641.58 206.22,637.83 210.01,631.03C215.42,621.29 211.92,609.02 202.19,603.6C184.24,593.61 163.73,587.65 142.86,586.37C122.38,585.16 101.24,588.4 81.91,595.84C71.53,599.85 66.35,611.53 70.37,621.92C74.38,632.3 86.06,637.46 96.45,633.46C106.16,629.69 121.75,625.39 140.37,626.61L140.38,626.62Z" style="fill:none;fill-rule:nonzero;stroke:rgb(0,48,36);stroke-width:88px;"/>
    </g>
    <g id="Logo">
        <path d="M287.95,900.51C276.06,905.6 263.88,893.93 268.47,881.83L310.27,771.7C312.54,765.71 318.44,761.89 324.84,762.27L514.13,773.41C529.57,774.32 533.26,795.43 519.04,801.52" style="fill:rgb(165,237,67);fill-rule:nonzero;"/>
        <g>
            <g>
                <path d="M833.15,671C811.76,795.32 654.01,853.27 548.82,854.75C544.24,854.89 539.67,854.76 535.11,854.63C404.51,850.95 256.97,770.69 244.65,654.43C240.93,619.5 249.91,582.23 270.41,546.51C270.24,495.41 274.99,446.06 284.36,399.79C290.45,369.84 298.39,341.02 308.29,314.14C311.94,304.02 320.07,296.86 329.81,294.84C339.55,292.83 349.81,296.34 357.11,304.21C376.69,325.07 395.4,348.45 412.57,373.68C420.84,385.75 428.82,398.21 436.65,411.61C456.63,404.1 476.95,398.76 497.34,395.57C496.37,391.78 495.53,388.12 494.96,384.48C491.4,362.86 493.23,340.73 500.15,319.54C482.24,320.25 464.58,317.06 448.24,310.01C408.51,293.02 380.79,255.67 375.81,212.77C375.39,208.86 376.97,205 380.13,202.54C414.75,176.62 460.9,170.93 500.62,188.05C522.28,197.4 540.67,212.84 553.56,232.57C567.04,216.81 584.33,204.66 603.63,197.4C644.26,182.41 690.02,190.28 723.26,217.98C726.28,220.49 727.79,224.43 727.14,228.31C720.02,271 690.37,306.88 649.88,321.88C622.97,331.88 593.93,332 567.17,322.38C560.67,333.36 553.02,352.1 556.69,374.53C557.73,380.74 559.44,386.71 562.09,392.7C593.36,395.06 625,402.94 656.22,416.46C664.51,403.92 672.9,392.46 681.42,381.27C700.12,357.05 720.11,334.76 740.84,315.04C748.58,307.59 759.02,304.66 768.63,307.22C778.24,309.78 785.83,317.39 788.9,327.69C797.27,355.09 803.71,384.31 808.1,414.56C814.61,460.33 816.61,508.79 813.86,558.74C832.7,596.38 839.27,635.16 833.16,671.03L833.15,671Z" style="fill:rgb(165,237,67);fill-rule:nonzero;"/>
                <g>
                    <path d="M936.61,715.27C919.52,703.22 899.68,694.9 879.25,691.2C868.28,689.41 857.8,696.51 855.81,707.45C853.83,718.41 861.12,728.9 872.06,730.89C882.32,732.74 897.8,737.25 913.38,748.23C928.83,759.12 938.24,772.03 943.4,780.95C947.04,787.22 953.55,790.8 960.29,790.99C963.91,791.09 967.6,790.22 970.96,788.28C980.59,782.69 983.87,770.35 978.29,760.71C967.97,742.93 953.56,727.21 936.6,715.27L936.61,715.27Z" style="fill:rgb(165,237,67);fill-rule:nonzero;"/>
                    <path d="M999.13,621.67C980.28,613.16 959.72,608.69 938.8,608.78C917.9,608.89 897.09,613.69 878.61,622.65C868.6,627.52 864.41,639.57 869.26,649.6C872.66,656.6 879.58,660.75 886.85,660.96C889.99,661.05 893.18,660.4 896.2,658.95C905.33,654.52 920.16,649.21 939.01,649.11C957.49,648.95 973,654.11 982.49,658.42C992.63,663 1004.6,658.5 1009.18,648.36C1013.77,638.21 1009.26,626.26 999.12,621.67L999.13,621.67Z" style="fill:rgb(165,237,67);fill-rule:nonzero;"/>
                    <path d="M197.7,672.01C177.09,674.56 156.81,681.74 139.07,692.81C121.47,703.78 106.2,718.66 94.89,735.83C88.77,745.14 91.36,757.65 100.66,763.77C103.91,765.9 107.54,766.97 111.16,767.07C117.9,767.26 124.6,764.06 128.59,758C134.24,749.39 144.36,737.03 160.4,727.03C176.57,716.94 192.29,713.31 202.63,712.04C213.67,710.67 221.53,700.61 220.18,689.55C218.81,678.51 208.9,670.82 197.69,672L197.7,672.01Z" style="fill:rgb(165,237,67);fill-rule:nonzero;"/>
                    <path d="M140.38,626.62C159.2,627.78 173.71,633.91 182.58,638.85C185.52,640.47 188.67,641.29 191.81,641.38C199.08,641.58 206.22,637.83 210.01,631.03C215.42,621.29 211.92,609.02 202.19,603.6C184.24,593.61 163.73,587.65 142.86,586.37C122.38,585.16 101.24,588.4 81.91,595.84C71.53,599.85 66.35,611.53 70.37,621.92C74.38,632.3 86.06,637.46 96.45,633.46C106.16,629.69 121.75,625.39 140.37,626.61L140.38,626.62Z" style="fill:rgb(165,237,67);fill-rule:nonzero;"/>
                </g>
            </g>
            <g>
                <path d="M526.38,663.56C515.93,649.76 505.48,635.97 495.03,622.17C487.89,612.74 493.08,599 504.71,596.83C514.97,594.92 526.95,593.64 540.29,593.97C554.14,594.3 566.47,596.28 576.92,598.84C588.45,601.66 592.88,615.72 585.15,624.74C573.85,637.93 562.56,651.12 551.26,664.31C544.63,672.05 532.54,671.69 526.39,663.56L526.38,663.56Z" style="fill:rgb(0,48,36);fill-rule:nonzero;"/>
                <g>
                    <path d="M480.45,707.97C457.33,707.32 439.72,696.33 437.05,694.57C430.85,690.5 429.13,682.16 433.2,675.96C437.27,669.77 445.6,668.02 451.81,672.11C452.06,672.26 477.19,688.41 502.04,676.78C517.5,669.51 524.49,655.64 526.77,650.02C529.55,643.14 537.4,639.85 544.27,642.62C551.15,645.41 554.46,653.24 551.67,660.12C548.2,668.68 537.52,689.81 513.46,701.1C501.92,706.53 490.65,708.24 480.45,707.96L480.45,707.97Z" style="fill:rgb(0,48,36);fill-rule:nonzero;"/>
                    <path d="M594.93,711.19C584.72,710.9 573.56,708.55 562.35,702.49C538.95,689.86 529.49,668.16 526.51,659.42C524.11,652.39 527.85,644.76 534.88,642.36C541.89,639.97 549.55,643.71 551.94,650.73C553.91,656.47 560.1,670.71 575.14,678.84C599.25,691.84 625.27,677.14 625.54,677C631.95,673.27 640.17,675.48 643.9,681.89C647.62,688.31 645.43,696.54 639.01,700.25C636.25,701.85 618.04,711.83 594.93,711.18L594.93,711.19Z" style="fill:rgb(0,48,36);fill-rule:nonzero;"/>
                </g>
                <g>
                    <path d="M394.36,658.58C342.44,657.12 301.4,613.71 302.87,561.78C304.33,509.86 347.74,468.82 399.67,470.29C451.59,471.75 492.63,515.16 491.16,567.09C489.7,619.01 446.29,660.05 394.36,658.58ZM398.6,507.84C367.4,506.96 341.29,531.64 340.41,562.84C339.53,594.04 364.21,620.15 395.41,621.03C426.61,621.91 452.72,597.23 453.6,566.03C454.48,534.83 429.8,508.72 398.6,507.84Z" style="fill:rgb(0,48,36);fill-rule:nonzero;"/>
                    <path d="M683.65,666.73C631.74,665.27 590.71,621.86 592.17,569.93C593.63,518.01 637.04,476.97 688.95,478.44C740.87,479.9 781.91,523.31 780.44,575.24C778.98,627.16 735.57,668.2 683.64,666.73L683.65,666.73ZM687.89,515.99C656.7,515.11 630.6,539.79 629.72,570.99C628.84,602.19 653.52,628.3 684.71,629.17C715.91,630.05 742.02,605.37 742.9,574.17C743.78,542.97 719.1,516.86 687.9,515.98L687.89,515.99Z" style="fill:rgb(0,48,36);fill-rule:nonzero;"/>
                </g>
                <path d="M612.29,582.38C606.46,582.22 601.36,579.33 598.15,574.97C591.39,572.56 572.28,568.59 541.68,567.73C511.08,566.87 491.78,569.75 484.89,571.78C481.44,575.95 476.18,578.55 470.35,578.38C460.3,578.1 452.38,569.72 452.66,559.67C452.92,550.45 453.53,528.82 542.7,531.33C631.87,533.84 631.26,555.46 631,564.69C630.72,574.74 622.34,582.66 612.29,582.38ZM489.06,560.74L594.61,563.71" style="fill:rgb(0,48,36);fill-rule:nonzero;"/>
                <g>
                    <path d="M413.28,606.88C383.18,606.03 359.39,580.85 360.23,550.75C361.08,520.65 386.25,496.84 416.35,497.69C446.45,498.54 470.26,523.72 469.41,553.82C468.56,583.92 443.38,607.73 413.28,606.88ZM414.83,552.24L414.83,552.28L414.83,552.24Z" style="fill:rgb(0,48,36);fill-rule:nonzero;"/>
                    <path d="M667.67,614.04C637.57,613.19 613.76,588.01 614.61,557.91C615.46,527.81 640.64,504 670.74,504.85C700.84,505.7 724.65,530.88 723.8,560.98C722.95,591.08 697.77,614.89 667.67,614.04ZM669.22,559.4L669.22,559.44L669.22,559.4Z" style="fill:rgb(0,48,36);fill-rule:nonzero;"/>
                </g>
            </g>
        </g>
    </g>
</svg>
