<?xml version="1.0" encoding="UTF-8" standalone="no"?><!DOCTYPE svg PUBLIC "-//W3C//DTD SVG 1.1//EN" "http://www.w3.org/Graphics/SVG/1.1/DTD/svg11.dtd"><svg width="100%" height="100%" viewBox="0 0 834 834" version="1.1" xmlns="http://www.w3.org/2000/svg" xmlns:xlink="http://www.w3.org/1999/xlink" xml:space="preserve" xmlns:serif="http://www.serif.com/" style="fill-rule:evenodd;clip-rule:evenodd;stroke-miterlimit:10;"><g id="Outline"><path d="M630.135,313.134c-3.495,-24.077 -8.623,-47.35 -15.287,-69.166c-2.444,-8.209 -8.488,-14.268 -16.139,-16.298c-7.652,-2.038 -15.964,0.303 -22.127,6.226c-16.505,15.701 -32.421,33.457 -47.31,52.733c-6.784,8.91 -13.464,18.034 -20.064,28.018c-24.858,-10.765 -50.057,-17.039 -74.947,-18.918c-2.11,-4.769 -3.479,-9.523 -4.3,-14.467c-2.922,-17.859 3.169,-32.78 8.344,-41.522c21.306,7.667 44.428,7.572 65.854,-0.398c32.238,-11.943 55.854,-40.503 61.515,-74.501c0.518,-3.089 -0.685,-6.226 -3.089,-8.225c-26.466,-22.055 -62.908,-28.321 -95.25,-16.386c-15.367,5.78 -29.133,15.454 -39.866,28.003c-10.263,-15.709 -24.905,-28.003 -42.151,-35.447c-31.625,-13.631 -68.37,-9.101 -95.935,11.537c-2.516,1.967 -3.782,5.032 -3.44,8.145c3.965,34.157 26.036,63.903 57.669,77.423c13.01,5.613 27.071,8.153 41.331,7.588c-5.51,16.872 -6.967,34.492 -4.132,51.706c0.454,2.906 1.123,5.812 1.895,8.83c-16.235,2.54 -32.421,6.792 -48.322,12.771c-6.234,-10.669 -12.588,-20.59 -19.173,-30.2c-13.671,-20.088 -28.568,-38.704 -44.158,-55.312c-5.82,-6.266 -13.981,-9.069 -21.736,-7.46c-7.755,1.6 -14.228,7.309 -17.134,15.367c-7.882,21.402 -14.204,44.357 -19.053,68.195c-7.46,36.832 -11.242,76.125 -11.107,116.819c-16.322,28.448 -23.48,58.115 -20.51,85.926c3.79,35.758 23.655,67.232 52.597,92.575c-0.119,0.263 -0.239,0.525 -0.342,0.804l-33.281,87.686c-3.655,9.626 6.043,18.926 15.51,14.873l116.867,-50.065c26.187,8.097 53.489,12.787 79.923,13.528c3.639,0.104 7.277,0.207 10.916,0.096c83.753,-1.178 209.354,-47.318 226.385,-146.303c4.873,-28.56 -0.366,-59.429 -15.367,-89.406c2.19,-39.762 0.055,-81.976 -5.129,-118.418l0.543,3.645Z" style="fill:none;fill-rule:nonzero;stroke:#003024;stroke-width:70.07px;"/><path d="M732.448,552.576c-13.607,-9.594 -29.396,-16.219 -45.662,-19.165c-8.734,-1.425 -17.079,4.228 -18.663,12.938c-1.576,8.726 4.228,17.079 12.938,18.663c8.169,1.473 20.494,5.064 32.899,13.806c12.301,8.671 19.794,18.95 23.902,26.052c2.898,4.992 8.081,7.843 13.448,7.994c2.882,0.08 5.82,-0.613 8.496,-2.158c7.667,-4.451 10.279,-14.276 5.836,-21.951c-8.217,-14.157 -19.69,-26.673 -33.194,-36.18Z" style="fill:none;fill-rule:nonzero;stroke:#003024;stroke-width:70.07px;"/><path d="M782.226,478.051c-15.008,-6.776 -31.37,-10.335 -48.027,-10.263c-16.641,0.088 -33.21,3.909 -47.924,11.043c-7.97,3.878 -11.306,13.472 -7.445,21.458c2.707,5.573 8.217,8.878 14.005,9.045c2.5,0.072 5.04,-0.446 7.445,-1.6c7.269,-3.527 19.077,-7.755 34.086,-7.835c14.714,-0.127 27.063,3.981 34.619,7.413c8.074,3.647 17.604,0.064 21.251,-8.01c3.655,-8.081 0.064,-17.596 -8.01,-21.251Z" style="fill:none;fill-rule:nonzero;stroke:#003024;stroke-width:70.07px;"/><path d="M144.124,518.132c-16.41,2.03 -32.557,7.747 -46.681,16.561c-14.013,8.734 -26.171,20.582 -35.176,34.253c-4.873,7.413 -2.811,17.373 4.594,22.246c2.588,1.696 5.478,2.548 8.36,2.627c5.366,0.151 10.701,-2.397 13.878,-7.222c4.499,-6.855 12.556,-16.696 25.327,-24.658c12.875,-8.034 25.391,-10.924 33.624,-11.935c8.79,-1.091 15.048,-9.101 13.973,-17.907c-1.091,-8.79 -8.981,-14.913 -17.907,-13.973l0.008,0.008Z" style="fill:none;fill-rule:nonzero;stroke:#003024;stroke-width:70.07px;"/><path d="M98.494,481.993c14.985,0.924 26.537,5.804 33.6,9.738c2.341,1.29 4.849,1.943 7.349,2.014c5.788,0.159 11.473,-2.827 14.491,-8.241c4.307,-7.755 1.521,-17.524 -6.226,-21.84c-14.292,-7.954 -30.622,-12.699 -47.239,-13.719c-16.306,-0.963 -33.138,1.616 -48.529,7.54c-8.265,3.193 -12.389,12.492 -9.188,20.765c3.193,8.265 12.492,12.373 20.765,9.188c7.731,-3.002 20.144,-6.425 34.969,-5.454l0.008,0.008Z" style="fill:none;fill-rule:nonzero;stroke:#003024;stroke-width:70.07px;"/></g><g id="Logo"><path d="M215.99,700.065c-9.467,4.053 -19.165,-5.239 -15.51,-14.873l33.281,-87.686c1.807,-4.769 6.505,-7.811 11.601,-7.508l150.714,8.87c12.293,0.725 15.231,17.532 3.909,22.381" style="fill:#a5ed43;fill-rule:nonzero;"/><g><g><path d="M650.08,517.328c-17.031,98.984 -142.632,145.124 -226.385,146.303c-3.647,0.111 -7.285,0.008 -10.916,-0.096c-103.984,-2.93 -221.456,-66.833 -231.266,-159.4c-2.962,-27.811 4.188,-57.486 20.51,-85.926c-0.135,-40.686 3.647,-79.979 11.107,-116.819c4.849,-23.846 11.171,-46.793 19.053,-68.195c2.906,-8.058 9.379,-13.758 17.134,-15.367c7.755,-1.6 15.924,1.194 21.736,7.46c15.59,16.609 30.487,35.224 44.158,55.312c6.585,9.61 12.938,19.531 19.173,30.2c15.908,-5.979 32.087,-10.231 48.322,-12.771c-0.772,-3.018 -1.441,-5.932 -1.895,-8.83c-2.834,-17.214 -1.377,-34.834 4.132,-51.706c-14.26,0.565 -28.321,-1.975 -41.331,-7.588c-31.633,-13.528 -53.704,-43.266 -57.669,-77.423c-0.334,-3.113 0.924,-6.187 3.44,-8.145c27.565,-20.638 64.309,-25.168 95.935,-11.537c17.246,7.445 31.888,19.738 42.151,35.447c10.733,-12.548 24.499,-22.222 39.866,-28.003c32.35,-11.935 68.784,-5.669 95.25,16.386c2.405,1.998 3.607,5.136 3.089,8.225c-5.669,33.99 -29.276,62.558 -61.515,74.501c-21.426,7.962 -44.548,8.058 -65.854,0.398c-5.175,8.742 -11.266,23.663 -8.344,41.522c0.828,4.944 2.19,9.698 4.3,14.467c24.897,1.879 50.089,8.153 74.947,18.918c6.601,-9.984 13.281,-19.109 20.064,-28.018c14.889,-19.284 30.805,-37.031 47.31,-52.733c6.163,-5.932 14.475,-8.265 22.127,-6.226c7.652,2.038 13.695,8.097 16.139,16.298c6.664,21.816 11.792,45.081 15.287,69.166c5.183,36.442 6.776,75.026 4.586,114.797c15,29.969 20.232,60.846 15.367,89.406l-0.008,-0.024Z" style="fill:#a5ed43;fill-rule:nonzero;"/><g><path d="M732.456,552.576c-13.607,-9.594 -29.404,-16.219 -45.67,-19.165c-8.734,-1.425 -17.079,4.228 -18.663,12.938c-1.576,8.726 4.228,17.079 12.938,18.663c8.169,1.473 20.494,5.064 32.899,13.806c12.301,8.671 19.794,18.95 23.902,26.052c2.898,4.992 8.081,7.843 13.448,7.994c2.882,0.08 5.82,-0.613 8.496,-2.158c7.667,-4.451 10.279,-14.276 5.836,-21.951c-8.217,-14.157 -19.69,-26.673 -33.194,-36.18l0.008,0Z" style="fill:#a5ed43;fill-rule:nonzero;"/><path d="M782.234,478.051c-15.008,-6.776 -31.378,-10.335 -48.035,-10.263c-16.641,0.088 -33.21,3.909 -47.924,11.043c-7.97,3.878 -11.306,13.472 -7.445,21.458c2.707,5.573 8.217,8.878 14.005,9.045c2.5,0.072 5.04,-0.446 7.445,-1.6c7.269,-3.527 19.077,-7.755 34.086,-7.835c14.714,-0.127 27.063,3.981 34.619,7.413c8.074,3.647 17.604,0.064 21.251,-8.01c3.655,-8.081 0.064,-17.596 -8.01,-21.251l0.008,0Z" style="fill:#a5ed43;fill-rule:nonzero;"/><path d="M144.132,518.132c-16.41,2.03 -32.557,7.747 -46.681,16.561c-14.013,8.734 -26.171,20.582 -35.176,34.253c-4.873,7.413 -2.811,17.373 4.594,22.246c2.588,1.696 5.478,2.548 8.36,2.627c5.366,0.151 10.701,-2.397 13.878,-7.222c4.499,-6.855 12.556,-16.696 25.327,-24.658c12.875,-8.034 25.391,-10.924 33.624,-11.935c8.79,-1.091 15.048,-9.101 13.973,-17.907c-1.091,-8.79 -8.981,-14.913 -17.907,-13.973l0.008,0.008Z" style="fill:#a5ed43;fill-rule:nonzero;"/><path d="M98.494,481.993c14.985,0.924 26.537,5.804 33.6,9.738c2.341,1.29 4.849,1.943 7.349,2.014c5.788,0.159 11.473,-2.827 14.491,-8.241c4.307,-7.755 1.521,-17.524 -6.226,-21.84c-14.292,-7.954 -30.622,-12.699 -47.239,-13.719c-16.306,-0.963 -33.138,1.616 -48.529,7.54c-8.265,3.193 -12.389,12.492 -9.188,20.765c3.193,8.265 12.492,12.373 20.765,9.188c7.731,-3.002 20.144,-6.425 34.969,-5.454l0.008,0.008Z" style="fill:#a5ed43;fill-rule:nonzero;"/></g></g><g><path d="M405.829,511.404c-8.32,-10.988 -16.641,-21.967 -24.961,-32.955c-5.685,-7.508 -1.553,-18.448 7.707,-20.176c8.169,-1.521 17.708,-2.54 28.329,-2.277c11.027,0.263 20.845,1.839 29.165,3.878c9.18,2.245 12.707,13.44 6.553,20.622c-8.997,10.502 -17.986,21.004 -26.983,31.506c-5.279,6.163 -14.905,5.876 -19.802,-0.597l-0.008,0Z" style="fill:#003024;fill-rule:nonzero;"/><g><path d="M369.259,546.764c-18.408,-0.518 -32.429,-9.268 -34.555,-10.669c-4.936,-3.241 -6.306,-9.881 -3.065,-14.817c3.241,-4.929 9.873,-6.322 14.817,-3.065c0.199,0.119 20.208,12.978 39.993,3.718c12.309,-5.788 17.875,-16.832 19.69,-21.306c2.213,-5.478 8.464,-8.097 13.934,-5.892c5.478,2.221 8.113,8.456 5.892,13.934c-2.763,6.816 -11.266,23.639 -30.423,32.628c-9.188,4.323 -18.161,5.685 -26.283,5.462l0,0.008Z" style="fill:#003024;fill-rule:nonzero;"/><path d="M460.409,549.328c-8.129,-0.231 -17.015,-2.102 -25.94,-6.927c-18.631,-10.056 -26.163,-27.334 -28.536,-34.293c-1.911,-5.597 1.067,-11.672 6.664,-13.583c5.581,-1.903 11.68,1.075 13.583,6.664c1.569,4.57 6.497,15.908 18.472,22.381c19.196,10.351 39.914,-1.354 40.129,-1.465c5.104,-2.97 11.648,-1.21 14.618,3.893c2.962,5.112 1.218,11.664 -3.893,14.618c-2.198,1.274 -16.696,9.22 -35.097,8.703l0,0.008Z" style="fill:#003024;fill-rule:nonzero;"/></g><g><path d="M300.714,507.439c-41.339,-1.162 -74.015,-35.726 -72.845,-77.073c1.162,-41.339 35.726,-74.015 77.073,-72.845c41.339,1.162 74.015,35.726 72.845,77.073c-1.162,41.339 -35.726,74.015 -77.073,72.845Zm3.376,-120.02c-24.842,-0.701 -45.63,18.95 -46.331,43.791c-0.701,24.842 18.95,45.63 43.791,46.331c24.842,0.701 45.63,-18.95 46.331,-43.791c0.701,-24.842 -18.95,-45.63 -43.791,-46.331Z" style="fill:#003024;fill-rule:nonzero;"/><path d="M531.048,513.928c-41.331,-1.162 -73.999,-35.726 -72.837,-77.073c1.162,-41.339 35.726,-74.015 77.057,-72.845c41.339,1.162 74.015,35.726 72.845,77.073c-1.162,41.339 -35.726,74.015 -77.073,72.845l0.008,0Zm3.376,-120.02c-24.834,-0.701 -45.615,18.95 -46.315,43.791c-0.701,24.842 18.95,45.63 43.783,46.323c24.842,0.701 45.63,-18.95 46.331,-43.791c0.701,-24.842 -18.95,-45.63 -43.791,-46.331l-0.008,0.008Z" style="fill:#003024;fill-rule:nonzero;"/></g><path d="M474.231,446.769c-4.642,-0.127 -8.703,-2.428 -11.258,-5.9c-5.382,-1.919 -20.598,-5.08 -44.962,-5.765c-24.364,-0.685 -39.731,1.608 -45.216,3.225c-2.747,3.32 -6.935,5.39 -11.577,5.255c-8.002,-0.223 -14.308,-6.895 -14.085,-14.897c0.207,-7.341 0.693,-24.563 71.69,-22.564c70.998,1.998 70.512,19.212 70.305,26.561c-0.223,8.002 -6.895,14.308 -14.897,14.085Zm-98.116,-17.23l84.039,2.365" style="fill:#003024;fill-rule:nonzero;"/><g><path d="M315.778,466.276c-23.966,-0.677 -42.907,-20.725 -42.239,-44.691c0.677,-23.966 20.717,-42.923 44.683,-42.247c23.966,0.677 42.923,20.725 42.247,44.691c-0.677,23.966 -20.725,42.923 -44.691,42.247Zm1.234,-43.505l0,0.032l0,-0.032Z" style="fill:#003024;fill-rule:nonzero;"/><path d="M518.324,471.976c-23.966,-0.677 -42.923,-20.725 -42.247,-44.691c0.677,-23.966 20.725,-42.923 44.691,-42.247c23.966,0.677 42.923,20.725 42.247,44.691c-0.677,23.966 -20.725,42.923 -44.691,42.247Zm1.234,-43.505l0,0.032l0,-0.032Z" style="fill:#003024;fill-rule:nonzero;"/></g></g></g></g></svg>